<?xml version="1.0" standalone="no"?>
<!DOCTYPE svg PUBLIC "-//W3C//DTD SVG 20010904//EN"
 "http://www.w3.org/TR/2001/REC-SVG-20010904/DTD/svg10.dtd">
<svg version="1.0" xmlns="http://www.w3.org/2000/svg"
 width="128.000000pt" height="128.000000pt" viewBox="0 0 128.000000 128.000000"
 preserveAspectRatio="xMidYMid meet">
<metadata>
Created by potrace 1.14, written by Peter Selinger 2001-2017
</metadata>
<g transform="translate(0.000000,128.000000) scale(0.100000,-0.100000)"
fill="#000000" stroke="none">
<path d="M368 1263 c-27 -17 -38 -40 -38 -80 0 -21 -10 -28 -32 -24 -5 0 -8
-18 -8 -41 0 -28 -7 -49 -20 -63 -19 -20 -21 -36 -21 -167 l-1 -144 -46 -3
c-51 -2 -91 -25 -107 -59 -6 -13 -19 -22 -32 -22 -42 0 -63 -33 -63 -100 0
-52 4 -65 25 -86 14 -14 29 -23 34 -19 19 11 23 -21 25 -198 2 -192 6 -211 50
-240 21 -14 78 -16 469 -17 l445 0 31 31 c17 17 31 34 31 39 0 5 14 11 30 15
47 10 63 43 56 115 -5 65 -22 89 -62 90 -19 0 -20 6 -20 80 0 78 0 79 27 85
38 9 53 29 58 78 1 4 12 7 25 7 48 0 56 30 56 195 0 115 -3 156 -14 171 -13
17 -29 19 -155 22 l-141 4 0 -45 c0 -39 2 -44 19 -40 11 3 21 13 24 23 4 15
18 18 110 19 127 2 119 15 115 -174 -3 -111 -5 -130 -20 -133 -11 -2 -20 8
-28 32 -11 34 -26 46 -59 46 -10 0 -23 11 -29 24 -25 56 -37 58 -354 60 l-293
1 -1 130 c-2 168 -1 161 -21 181 -19 19 -20 22 -22 72 -1 25 -5 32 -18 30 -24
-4 -30 44 -8 66 14 14 46 16 224 16 192 0 209 -1 225 -19 24 -26 6 -61 -32
-62 -15 -1 -54 -2 -87 -4 -82 -3 -82 -3 -99 -21 -12 -12 -16 -37 -16 -109 0
-124 10 -137 100 -133 63 3 64 4 63 31 -2 46 -2 47 -23 47 -14 0 -20 -7 -20
-21 0 -17 -5 -20 -37 -17 l-38 3 -3 88 c-2 65 0 87 10 88 7 0 49 2 93 3 85 2
134 22 136 55 0 9 2 24 4 34 2 10 -7 30 -20 45 l-23 27 -224 3 c-195 2 -226 0
-250 -15z"/>
<path d="M809 963 c-8 -66 -3 -105 13 -114 10 -5 19 -8 19 -7 1 2 3 31 4 66 2
55 0 62 -16 62 -11 0 -19 -3 -20 -7z"/>
<path d="M890 906 c0 -59 2 -64 20 -59 17 5 20 14 20 64 0 52 -2 59 -20 59
-18 0 -20 -7 -20 -64z"/>
</g>
</svg>
